<svg xmlns="http://www.w3.org/2000/svg" class="icon icon-tabler icon-tabler-moon" width="24" height="24" viewBox="0 0 24 24" stroke-width="2" stroke="white" fill="none" stroke-linecap="round" stroke-linejoin="round"><path stroke="none" d="M0 0h24v24H0z" fill="none"/><path d="M12 3c.132 0 .263 0 .393 0a7.5 7.5 0 0 0 7.92 12.446a9 9 0 1 1 -8.313 -12.454z" /></svg><!--! Font Awesome Pro 6.1.1 by @fontawesome - https://fontawesome.com License - https://fontawesome.com/license (Commercial License) Copyright 2022 Fonticons, Inc. --><path d="M32 256c0-123.8 100.3-224 223.8-224c11.36 0 29.7 1.668 40.9 3.746c9.616 1.777 11.75 14.63 3.279 19.44C245 86.5 211.2 144.6 211.2 207.8c0 109.7 99.71 193 208.3 172.3c9.561-1.805 16.28 9.324 10.11 16.95C387.9 448.6 324.8 480 255.8 480C132.1 480 32 379.6 32 256z"/></svg>